<svg width="29" height="29" viewBox="0 0 29 29" fill="none" xmlns="http://www.w3.org/2000/svg">
<path d="M16.9165 25.375H19.3332M16.9165 25.375C16.4358 25.375 15.9748 25.184 15.6349 24.8441C15.295 24.5042 15.104 24.0432 15.104 23.5625V20.5417H14.4998M16.9165 25.375H12.0832M14.4998 20.5417H13.8957V23.5625C13.8957 24.0432 13.7047 24.5042 13.3648 24.8441C13.0249 25.184 12.5639 25.375 12.0832 25.375M14.4998 20.5417V25.375M12.0832 25.375H9.6665M19.3332 3.625H9.6665C6.24934 3.625 4.53955 3.625 3.47863 4.68712C2.4165 5.74804 2.4165 7.45783 2.4165 10.875V13.2917C2.4165 16.7088 2.4165 18.4186 3.47863 19.4795C4.53955 20.5417 6.24934 20.5417 9.6665 20.5417H19.3332C22.7503 20.5417 24.4601 20.5417 25.521 19.4795C26.5832 18.4186 26.5832 16.7088 26.5832 13.2917V10.875C26.5832 7.45783 26.5832 5.74804 25.521 4.68712C24.4601 3.625 22.7503 3.625 19.3332 3.625Z" stroke="#DA6349" stroke-width="1.5" stroke-linecap="round" stroke-linejoin="round"/>
<path d="M14.5 12.6875C15.1409 12.6875 15.7556 12.4328 16.2088 11.9796C16.6621 11.5264 16.9167 10.9117 16.9167 10.2708C16.9167 9.62985 16.6621 9.01516 16.2088 8.56195C15.7556 8.10874 15.1409 7.85413 14.5 7.85413C13.8591 7.85413 13.2444 8.10874 12.7912 8.56195C12.3379 9.01516 12.0833 9.62985 12.0833 10.2708C12.0833 10.9117 12.3379 11.5264 12.7912 11.9796C13.2444 12.4328 13.8591 12.6875 14.5 12.6875ZM14.5 12.6875C13.5386 12.6875 12.6166 13.0694 11.9367 13.7492C11.2569 14.429 10.875 15.351 10.875 16.3125M14.5 12.6875C15.4614 12.6875 16.3834 13.0694 17.0633 13.7492C17.7431 14.429 18.125 15.351 18.125 16.3125" stroke="#DA6349" stroke-width="1.5" stroke-linecap="round" stroke-linejoin="round"/>
</svg>
