<svg width="29" height="29" viewBox="0 0 29 29" fill="none" xmlns="http://www.w3.org/2000/svg">
<path d="M14.5 15.7083C17.3952 15.7083 20.0281 16.5469 21.9651 17.7286C22.9317 18.3183 23.7583 19.0143 24.3552 19.7707C24.9424 20.5138 25.375 21.4032 25.375 22.3541C25.375 23.3752 24.8784 24.1799 24.163 24.7539C23.4864 25.2976 22.5934 25.6577 21.6449 25.909C19.7381 26.4129 17.1934 26.5833 14.5 26.5833C11.8066 26.5833 9.26188 26.4141 7.35512 25.909C6.40658 25.6577 5.51362 25.2976 4.83696 24.7539C4.12042 24.1787 3.625 23.3752 3.625 22.3541C3.625 21.4032 4.05758 20.5138 4.64483 19.7695C5.24175 19.0143 6.06704 18.3195 7.03492 17.7274C8.97188 16.5481 11.606 15.7083 14.5 15.7083ZM14.5 2.41663C16.1024 2.41663 17.6391 3.05316 18.7721 4.18619C19.9051 5.31922 20.5417 6.85594 20.5417 8.45829C20.5417 10.0606 19.9051 11.5974 18.7721 12.7304C17.6391 13.8634 16.1024 14.5 14.5 14.5C12.8977 14.5 11.3609 13.8634 10.2279 12.7304C9.09486 11.5974 8.45833 10.0606 8.45833 8.45829C8.45833 6.85594 9.09486 5.31922 10.2279 4.18619C11.3609 3.05316 12.8977 2.41663 14.5 2.41663Z" fill="#88CEE0"/>
</svg>
