<svg width="29" height="29" viewBox="0 0 29 29" fill="none" xmlns="http://www.w3.org/2000/svg">
<path fill-rule="evenodd" clip-rule="evenodd" d="M13.2915 2.41663C11.6892 2.41663 10.1524 3.05316 9.0194 4.18619C7.88637 5.31922 7.24984 6.85594 7.24984 8.45829C7.24984 10.0606 7.88637 11.5974 9.0194 12.7304C10.1524 13.8634 11.6892 14.5 13.2915 14.5C14.8939 14.5 16.4306 13.8634 17.5636 12.7304C18.6966 11.5974 19.3332 10.0606 19.3332 8.45829C19.3332 6.85594 18.6966 5.31922 17.5636 4.18619C16.4306 3.05316 14.8939 2.41663 13.2915 2.41663ZM13.2915 15.7083C10.3975 15.7083 7.76338 16.5469 5.82642 17.7286C4.85975 18.3183 4.03325 19.0143 3.43634 19.7707C2.84909 20.5126 2.4165 21.4032 2.4165 22.3541C2.4165 23.3752 2.91313 24.1799 3.62846 24.7539C4.30513 25.2976 5.19809 25.6577 6.14663 25.909C8.05338 26.4129 10.5981 26.5833 13.2915 26.5833C13.5702 26.5833 13.8461 26.5813 14.1192 26.5773C14.3216 26.5745 14.52 26.5209 14.6963 26.4215C14.8726 26.322 15.021 26.1799 15.1281 26.0082C15.2351 25.8364 15.2973 25.6405 15.309 25.4384C15.3206 25.2364 15.2813 25.0347 15.1946 24.8517C14.7364 23.8819 14.4991 22.8226 14.4998 21.75C14.4998 20.2371 14.9626 18.8355 15.7529 17.6742C15.8703 17.5017 15.9411 17.3016 15.9582 17.0936C15.9754 16.8856 15.9384 16.6766 15.8507 16.4871C15.7631 16.2977 15.6279 16.1341 15.4583 16.0125C15.2887 15.8908 15.0904 15.8151 14.8829 15.7929C14.3625 15.7365 13.832 15.7083 13.2915 15.7083ZM26.2303 19.4155C26.4504 19.1876 26.5722 18.8823 26.5695 18.5655C26.5667 18.2487 26.4397 17.9456 26.2156 17.7216C25.9916 17.4976 25.6885 17.3705 25.3717 17.3677C25.0549 17.365 24.7496 17.4868 24.5218 17.7069L20.6768 21.5518L18.9683 19.8432C18.7404 19.6231 18.4351 19.5013 18.1183 19.5041C17.8015 19.5068 17.4984 19.6339 17.2744 19.8579C17.0504 20.082 16.9233 20.385 16.9205 20.7018C16.9178 21.0187 17.0396 21.3239 17.2597 21.5518L19.7368 24.0289C19.8602 24.1524 20.0067 24.2503 20.168 24.3172C20.3293 24.384 20.5022 24.4184 20.6768 24.4184C20.8514 24.4184 21.0243 24.384 21.1856 24.3172C21.3469 24.2503 21.4935 24.1524 21.6169 24.0289L26.2303 19.4155Z" fill="#0067B8"/>
</svg>
