<svg width="29" height="29" viewBox="0 0 29 29" fill="none" xmlns="http://www.w3.org/2000/svg">
<path d="M14.5 13.4125C11.2085 13.4125 10.5415 8.42452 10.5415 8.42452C10.15 5.82902 11.339 2.90002 14.4565 2.90002C17.5885 2.90002 18.7775 5.82902 18.386 8.42452C18.386 8.42452 17.7915 13.4125 14.5 13.4125ZM14.5 17.139L18.444 14.5C21.9095 14.5 24.998 17.8785 24.998 21.0685V24.679C24.998 24.679 19.7055 26.3175 14.5 26.3175C9.20745 26.3175 4.00195 24.679 4.00195 24.679V21.0685C4.00195 17.806 6.81495 14.5725 10.4835 14.5725L14.5 17.139Z" fill="#0963A5"/>
</svg>
