<svg width="100" height="100" viewBox="0 0 100 100" fill="none" xmlns="http://www.w3.org/2000/svg">
<path d="M30.5244 10.6278C29.7355 10.6278 28.9666 10.9056 28.4233 11.4478C27.8789 11.9878 27.6011 12.7623 27.6011 13.5489V86.4956C27.6011 87.2823 27.8789 88.0512 28.4233 88.5956C28.9666 89.14 29.7355 89.4178 30.5244 89.4178H69.5466C70.3333 89.4178 71.1089 89.14 71.6466 88.5956C72.1922 88.0512 72.4689 87.2823 72.4689 86.4956V13.5489C72.4689 12.7623 72.1911 11.9878 71.6466 11.4478C71.1089 10.9045 70.3333 10.6278 69.5466 10.6278H63.5222C63.0478 10.6278 62.6255 10.9111 62.4466 11.35L61.5489 13.5489C61.2589 14.2678 61.0289 14.62 60.6622 14.8578C60.3044 15.1011 59.6678 15.3034 58.4178 15.3034H41.6511C40.4022 15.3034 39.7655 15.1 39.4066 14.8578C39.0422 14.6211 38.81 14.2689 38.5211 13.5489L37.6244 11.35C37.4489 10.9156 37.0266 10.6278 36.5589 10.6278H30.5244Z" fill="#D0E3F9"/>
<path d="M30.3487 8.13329H69.7198C72.562 8.13329 74.8053 10.3888 74.8053 13.2255V86.8188C74.8053 89.6544 72.5609 91.9122 69.7198 91.9122H30.3487C27.5087 91.9122 25.262 89.6544 25.262 86.8188V13.2255C25.2631 10.39 27.5087 8.13329 30.3487 8.13329ZM30.3487 5.82996C26.2709 5.82996 22.9531 9.14773 22.9531 13.2255V86.8188C22.9531 90.8988 26.2709 94.2144 30.3487 94.2144H69.7198C73.7998 94.2144 77.1209 90.8988 77.1209 86.8188V13.2255C77.1209 9.14773 73.7998 5.82996 69.7198 5.82996H30.3487Z" fill="#ADBCD2"/>
<path d="M46.311 10.6278C45.6676 10.6278 45.1543 11.1411 45.1543 11.7845C45.1543 12.4267 45.6676 12.9423 46.311 12.9423H54.3432C54.9798 12.9423 55.501 12.4267 55.501 11.7845C55.501 11.1411 54.9798 10.6278 54.3432 10.6278H46.311Z" fill="#C4C4D5"/>
</svg>
