<svg width="180" height="180" viewBox="0 0 180 180" fill="none" xmlns="http://www.w3.org/2000/svg">
<rect width="180" height="180" fill="white"/>
<path d="M61.8501 127.567C55.8688 130.879 49.0516 133.645 42.3628 132.326C35.6741 131.008 29.7249 124.094 31.7829 117.598C33.0692 113.546 37.0568 110.33 36.8639 106.086C36.6709 101.937 32.6834 99.2362 29.5963 96.4707C22.3609 89.9427 18.7592 79.6202 20.3671 70.0373C21.5891 62.5768 27.4739 54.7948 35.0309 55.5665C37.8929 55.856 40.4655 57.3352 43.231 58.0426C57.3802 61.58 69.8572 44.5687 84.3602 46.0801C88.1869 46.466 91.8529 48.1703 95.6796 47.9774C102.786 47.6237 107.996 41.1279 114.781 39.0055C119.798 37.3977 125.586 38.4588 129.734 41.7067C133.883 44.9546 136.262 50.3249 135.909 55.5987C135.555 61.0333 132.532 65.8569 130.667 70.9377C128.802 76.0508 128.384 82.4822 132.339 86.2125C134.365 88.1098 137.163 88.978 139.285 90.7788C143.305 94.2197 143.819 100.49 141.922 105.41C140.025 110.363 136.23 114.286 132.532 118.048" fill="#F4F6F9"/>
<path d="M170.028 114.833C168.839 108.723 169.385 101.873 165.526 97.0176C161.507 91.9689 153.049 91.358 148.354 95.7635L147.518 95.6992L146.682 91.0364C146.264 88.5603 145.846 85.9877 145.428 83.2543V83.2222C145.621 83.2543 145.846 83.2865 146.039 83.3186C146.071 83.3186 146.103 83.3186 146.135 83.3186C146.328 83.3508 146.489 83.3508 146.682 83.3508C146.714 83.3508 146.746 83.3508 146.779 83.3508C146.971 83.3508 147.164 83.3508 147.39 83.3186C147.39 83.3186 147.39 83.3186 147.422 83.3186C147.647 83.2865 147.84 83.2543 148.065 83.2222H148.097C148.29 83.19 148.451 83.1257 148.644 83.0614C148.708 83.0292 148.74 83.0292 148.805 82.9971C148.933 82.9649 149.062 82.9006 149.19 82.8363C149.255 82.8041 149.319 82.772 149.383 82.7398C149.512 82.6755 149.641 82.6112 149.769 82.5468C149.834 82.5147 149.866 82.4825 149.93 82.4504C150.091 82.3539 150.252 82.2253 150.412 82.0967C152.406 80.5209 153.114 77.5625 152.181 75.1828C152.085 74.9256 151.956 74.6683 151.827 74.411C151.731 74.2824 151.666 74.1216 151.57 73.993C151.538 73.9608 151.506 73.8965 151.474 73.8644C151.409 73.7679 151.345 73.7036 151.248 73.6071C151.216 73.575 151.152 73.5106 151.12 73.4785C151.055 73.4142 150.991 73.3177 150.895 73.2534C150.863 73.2212 150.798 73.1569 150.766 73.1247C150.702 73.0604 150.605 72.9961 150.509 72.9318C150.477 72.8997 150.412 72.8675 150.38 72.8353C150.252 72.7389 150.123 72.6424 149.994 72.5781C149.93 72.5459 149.898 72.5138 149.833 72.4816C149.737 72.4173 149.673 72.3851 149.576 72.3208C149.512 72.2887 149.448 72.2565 149.351 72.2243C149.287 72.1922 149.223 72.16 149.126 72.1279C149.03 72.0957 148.965 72.0635 148.869 72.0314C148.804 71.9992 148.74 71.9671 148.676 71.9671C148.579 71.9349 148.483 71.9028 148.419 71.8706C148.354 71.8706 148.322 71.8385 148.258 71.8385C147.904 71.742 147.55 71.6777 147.165 71.6455C147.132 71.6455 147.1 71.6455 147.068 71.6455C146.939 71.6455 146.843 71.6455 146.714 71.6133C146.682 71.6133 146.618 71.6133 146.586 71.6133C146.457 71.6133 146.361 71.6133 146.232 71.6133C146.2 71.6133 146.168 71.6133 146.135 71.6133C146.007 71.6133 145.878 71.6455 145.782 71.6455L146.2 57.3998L137.131 54.1519C134.205 54.1841 131.343 55.5668 128.996 57.3033C121.921 62.6093 115.007 68.076 108.769 72.7389C108.769 72.7389 108.769 72.7389 108.801 72.771C108.672 72.8675 108.544 72.964 108.383 73.0604C108.383 73.0604 116.004 77.3052 119.734 79.3311C119.734 79.3311 117.226 86.3093 114.943 92.7407C111.791 89.8787 107.482 88.1101 103.109 88.2708C98.7355 88.4316 94.3943 90.6183 92.1754 94.1878C90.7927 96.4067 90.2139 98.9793 89.1205 101.327C88.0272 103.674 86.1298 105.99 83.4608 106.44L82.4961 105.797C82.3674 105.668 82.2388 105.539 82.1423 105.411C82.1101 105.379 82.078 105.346 82.0459 105.282C81.9494 105.186 81.885 105.089 81.7885 104.993C81.7564 104.928 81.6921 104.896 81.6599 104.832C81.5956 104.735 81.4992 104.671 81.4349 104.575C81.4028 104.51 81.3383 104.446 81.3062 104.414C81.2419 104.317 81.1777 104.253 81.1134 104.157C81.0812 104.092 81.0168 104.028 80.9846 103.964C80.9203 103.867 80.8561 103.771 80.7918 103.674C80.7596 103.61 80.7274 103.546 80.6952 103.481C80.6309 103.385 80.5666 103.256 80.5344 103.16C80.5023 103.095 80.4702 103.063 80.438 102.999C80.3415 102.838 80.2772 102.677 80.2129 102.517C79.8913 101.777 79.7306 101.005 79.6663 100.201C79.6341 100.008 79.6341 99.8153 79.6341 99.5902C79.6341 99.3973 79.6341 99.2044 79.6019 98.9793C79.6019 97.1784 79.8913 95.3133 79.9235 93.4803C79.9235 93.2874 79.9235 93.0623 79.9235 92.8694C79.8592 90.136 78.8944 87.4669 77.3187 85.2159C74.9391 81.8072 71.1446 79.3311 66.9641 78.9131C66.739 78.8809 66.4817 78.8809 66.2244 78.8809C65.6456 78.8809 65.0668 78.9452 64.5201 79.0739C63.3946 79.3633 62.3978 79.9421 61.9797 81.0033C61.8833 81.2284 61.8511 81.4535 61.819 81.6786C61.015 81.0676 60.0502 80.5853 59.1176 80.1994C55.323 78.5593 51.5929 76.6942 47.7983 74.9899C45.9332 74.1538 44.0358 73.2855 42.0742 72.6424C41.2381 72.353 40.4342 72.2243 39.6624 72.2243C34.0992 69.8769 29.4686 64.9246 27.5392 64.2815C25.6098 63.6383 24.3235 64.9246 25.6098 68.4619C26.6066 71.2275 29.9832 72.6102 31.3981 73.0926C30.7549 73.2534 30.1118 73.4463 29.5008 73.7036C26.4137 74.8934 23.6802 76.855 21.0112 78.7844C20.2715 79.3311 19.4998 79.8778 18.9531 80.6174C18.4064 81.357 18.1171 82.3539 18.4065 83.2222C18.6316 83.8653 19.2425 84.412 19.8857 84.5085C19.6284 84.9587 19.4356 85.441 19.3713 85.9555C19.2748 86.7916 19.6606 87.7563 20.4646 88.0458C21.0756 88.2709 21.7508 88.0779 22.3296 87.8207C24.645 86.8559 26.2529 85.441 27.5392 83.3508C27.7965 82.9327 28.118 82.579 28.4395 82.2574C27.1854 84.219 26.3172 86.3414 25.9635 88.4638C25.8349 89.2356 25.8027 90.2003 26.4137 90.7148C27.089 91.2936 28.1823 91.0042 28.9541 90.5219C32.1377 88.5603 31.9447 84.7657 34.7746 82.5468C35.4177 82.0645 36.1895 81.6143 36.9934 81.7429C38.1511 81.9359 40.6594 83.0614 40.7559 84.2512C40.8845 85.859 39.759 87.5312 38.4727 88.3673C36.4468 89.6858 34.2601 88.4638 32.202 89.6536C31.2051 90.2325 30.4334 91.4544 30.7871 92.5478C31.2052 93.9306 32.8451 94.4129 34.26 94.6058C38.4083 95.1525 42.6852 94.8953 46.7692 93.8662C49.3418 93.2231 51.4 92.7729 53.9404 93.7054C54.1977 93.8019 54.4226 93.8984 54.6156 93.9949C54.5834 94.027 54.5513 94.027 54.5192 94.0592C54.4227 94.1235 54.3263 94.1878 54.2298 94.2843C54.1655 94.3164 54.1012 94.3808 54.069 94.4129C53.9725 94.4772 53.8761 94.5737 53.7796 94.6702C53.7153 94.7345 53.6831 94.7666 53.6188 94.831C53.5224 94.9274 53.458 95.0239 53.3615 95.1204C53.3293 95.1847 53.265 95.249 53.2329 95.2812C53.1686 95.3776 53.072 95.4741 53.0077 95.5706C52.9756 95.6349 52.9113 95.6992 52.8791 95.7635C52.8148 95.86 52.7505 95.9886 52.6861 96.0851C52.654 96.1494 52.6219 96.2137 52.5897 96.278C52.5254 96.3745 52.4611 96.5031 52.4289 96.5996C52.3968 96.6639 52.3647 96.7282 52.3325 96.8247C52.2682 96.9533 52.2359 97.0498 52.2038 97.1784C52.1716 97.2427 52.1396 97.3392 52.1396 97.4035C52.1074 97.5322 52.0753 97.6286 52.011 97.7573C51.9788 97.8216 51.9787 97.9181 51.9466 97.9824C51.9144 98.111 51.8823 98.2075 51.8502 98.3361C51.818 98.4326 51.818 98.4969 51.7858 98.5934C51.7536 98.722 51.7536 98.8185 51.7214 98.9471C51.7214 99.0436 51.6894 99.14 51.6894 99.2365C51.6894 99.3651 51.6572 99.4616 51.6572 99.5902C51.6572 99.6867 51.6572 99.7832 51.625 99.8797C51.625 99.9761 51.5928 100.105 51.5928 100.201C51.5928 100.298 51.5928 100.426 51.5928 100.523C51.5928 100.619 51.5928 100.748 51.5928 100.844C51.5928 100.973 51.5928 101.069 51.5928 101.198C51.5928 101.295 51.5928 101.391 51.5928 101.488C51.5928 101.616 51.625 101.745 51.625 101.873C51.625 101.97 51.625 102.034 51.6572 102.131C51.6894 102.291 51.6893 102.484 51.7214 102.645C51.7214 102.677 51.7214 102.709 51.7214 102.742C51.8179 103.385 51.9466 103.996 52.1074 104.607C52.1717 104.8 52.2038 105.025 52.2682 105.218C52.7184 106.858 53.2651 108.498 53.6188 110.138C53.651 110.331 53.7153 110.556 53.7474 110.749C53.8761 111.36 53.9403 112.003 54.0046 112.646C54.4227 118.66 50.8855 124.126 49.1168 129.915C49.0525 130.14 48.9881 130.365 48.9238 130.622C48.5379 132.005 48.2806 133.42 48.2163 134.867C48.1198 137.343 48.6666 139.787 49.76 142.006C50.2102 142.906 50.7246 143.742 51.3034 144.546C52.9756 146.829 55.2267 148.694 57.7993 149.852C58.0565 149.981 58.3138 150.077 58.6032 150.174C58.764 150.238 58.9247 150.302 59.1176 150.367C59.4392 150.463 59.7608 150.592 60.1145 150.656C60.6612 150.785 61.2079 150.913 61.7546 150.978C62.0118 151.01 62.2369 151.042 62.4941 151.074L65.6456 147.794C70.019 143.742 78.4121 137.761 87.4804 140.623C100.665 144.803 131.214 141.266 145.364 130.654C159.513 120.042 179.418 131.201 179.418 131.201C174.627 126.988 171.283 121.136 170.028 114.833Z" fill="white"/>
<path d="M142.469 77.1764C142.34 76.9192 142.437 76.6619 142.63 76.5011C144.398 75.1827 146.746 74.7646 148.9 75.3435C149.511 75.5042 149.254 76.4368 148.643 76.276C146.746 75.7615 144.72 76.1795 143.144 77.3372C142.919 77.5301 142.598 77.4015 142.469 77.1764ZM139.028 63.0272C139.028 63.0593 139.06 63.0593 139.06 63.0915C139.092 63.1237 139.093 63.188 139.125 63.2201C139.157 63.3166 139.189 63.4131 139.221 63.5417C139.285 63.799 139.575 63.9598 139.8 63.8633C140.057 63.799 140.218 63.5417 140.122 63.2845C139.864 62.4162 139.382 61.5801 138.771 60.937C138.61 60.744 138.256 60.744 138.096 60.937C137.903 61.1299 137.903 61.4193 138.096 61.6123C138.16 61.6766 138.224 61.7731 138.289 61.8374C138.321 61.8695 138.353 61.9017 138.385 61.9338L138.417 61.966C138.417 61.966 138.417 61.966 138.417 61.9982C138.546 62.1589 138.642 62.3197 138.739 62.5127C138.835 62.6735 138.932 62.8342 139.028 63.0272ZM134.462 59.3291H134.558C134.655 59.3291 134.719 59.3613 134.816 59.3613C134.912 59.3613 135.009 59.3934 135.105 59.3934C135.137 59.3934 135.137 59.3934 135.169 59.3934C135.201 59.4577 135.266 59.4899 135.33 59.522C135.555 59.6507 135.877 59.5864 136.005 59.3613C136.102 59.1683 136.102 58.9754 136.005 58.7824C135.909 58.6216 135.748 58.5252 135.555 58.493C135.298 58.4287 135.041 58.3965 134.783 58.3644C134.237 58.3001 133.722 58.2357 133.176 58.2357C132.918 58.2357 132.693 58.4608 132.693 58.7181C132.693 58.9754 132.918 59.2005 133.176 59.2005C133.561 59.2005 133.979 59.2326 134.365 59.2648C134.365 59.3291 134.398 59.3291 134.462 59.3291ZM127.902 63.8311C127.966 63.8311 127.998 63.8311 128.063 63.8311C128.159 63.8311 128.256 63.8311 128.352 63.8311C128.352 63.8311 128.416 63.8311 128.448 63.8311C128.481 63.8311 128.513 63.8311 128.577 63.8633C128.673 63.8954 128.77 63.8954 128.867 63.9276C129.059 63.9919 129.124 64.0241 129.317 64.1205C129.413 64.1527 129.477 64.217 129.574 64.2813C129.606 64.2813 129.606 64.3135 129.606 64.3135C129.606 64.3135 129.606 64.3135 129.638 64.3456C129.67 64.3778 129.703 64.41 129.735 64.4421C130.024 64.6994 130.185 64.9566 130.281 65.3104C130.442 65.9214 131.375 65.6641 131.214 65.0531C130.635 63.0272 127.902 62.2232 126.294 63.5739C126.101 63.7346 126.133 64.0884 126.294 64.2492C126.487 64.4421 126.776 64.41 126.969 64.2492C127.001 64.217 127.001 64.217 127.001 64.217C127.001 64.217 127.001 64.217 127.033 64.217C127.066 64.1848 127.098 64.1527 127.162 64.1527C127.194 64.1205 127.259 64.1205 127.291 64.0884C127.323 64.0884 127.419 64.0241 127.419 64.0241C127.516 63.9919 127.805 63.8954 127.87 63.8954C127.741 63.8633 127.87 63.8311 127.902 63.8311ZM134.558 67.0468C135.073 66.5323 135.877 66.3394 136.552 66.5645C137.195 66.7574 137.71 67.3363 137.903 67.9794C138.063 68.5904 138.996 68.3332 138.835 67.7222C138.578 66.7253 137.806 65.9214 136.809 65.6319C135.78 65.3104 134.623 65.6319 133.883 66.3716C133.433 66.7896 134.108 67.497 134.558 67.0468ZM125.651 85.6016C125.008 86.2769 124.139 86.6628 123.207 86.5664C122.95 86.5342 122.724 86.7915 122.724 87.0487C122.724 87.3381 122.95 87.4989 123.207 87.5311C124.397 87.6597 125.586 87.113 126.39 86.2448C127.226 85.3444 127.644 84.1546 127.451 82.9004C127.419 82.6432 127.098 82.5145 126.873 82.5789C126.583 82.6432 126.487 82.9004 126.551 83.1577C126.615 83.5757 126.551 84.0259 126.39 84.4761C126.23 84.8942 125.94 85.3122 125.651 85.6016ZM124.172 116.119C123.046 116.055 121.953 116.344 120.827 116.344C119.766 116.344 118.737 116.183 117.708 115.862C116.775 115.572 115.714 115.09 115.264 114.157C114.878 113.386 115.007 112.324 115.907 112.035C116.711 111.778 117.611 112.164 118.158 112.775C118.866 113.579 119.123 114.64 119.412 115.637C119.573 116.248 120.506 115.99 120.345 115.379C119.862 113.643 119.187 111.617 117.226 111.102C116.454 110.909 115.553 110.974 114.91 111.488C114.203 112.067 113.978 113 114.138 113.868C114.556 115.926 116.936 116.794 118.737 117.116C119.83 117.309 120.924 117.341 122.017 117.212C123.046 117.084 124.268 116.826 125.233 117.341C126.004 117.759 126.487 118.563 125.94 119.399C125.361 120.299 124.204 120.46 123.207 120.525C121.728 120.653 119.605 120.685 119.059 118.981C118.769 118.145 118.512 117.341 117.611 117.019C116.872 116.762 116.003 116.923 115.392 117.341C114.621 117.855 114.267 118.788 114.203 119.688C114.138 120.75 114.589 121.618 114.846 122.615C115.135 123.708 114.46 124.383 113.592 124.898C112.724 125.412 111.823 125.83 111.051 126.474C109.443 127.856 108.607 130.333 110.119 132.101C110.537 132.584 111.212 131.876 110.794 131.426C109.508 129.914 110.73 127.889 112.048 126.924C113.302 126.023 115.2 125.541 115.778 123.965C116.132 123.001 115.682 122.1 115.392 121.168C115.135 120.364 115.071 119.431 115.489 118.659C115.843 118.048 116.647 117.663 117.322 117.92C118.094 118.209 118.094 119.27 118.415 119.914C119.187 121.296 120.988 121.586 122.435 121.554C124.139 121.521 126.358 121.232 127.033 119.367C127.741 117.502 125.812 116.215 124.172 116.119ZM116.968 119.849C118.898 123.097 118.866 127.31 116.872 130.525C116.55 131.04 117.386 131.522 117.708 131.008C119.895 127.535 119.927 122.904 117.804 119.367C117.483 118.82 116.647 119.303 116.968 119.849ZM179.064 131.587C175.72 128.596 173.051 124.834 171.314 120.685C170.542 118.852 169.963 116.923 169.578 114.993C169.192 113.064 168.999 111.102 168.774 109.173C168.356 105.378 167.873 101.359 165.687 98.0787C162.021 92.6441 153.499 91.6472 148.675 96.1171C148.354 96.4065 147.968 96.1814 147.871 95.892C148.386 98.561 148.9 101.23 149.479 103.899C149.608 104.51 148.675 104.767 148.547 104.156C148.225 102.677 147.936 101.23 147.646 99.7509C146.585 94.3806 145.653 89.0103 144.849 83.5757C143.884 83.2863 142.983 82.804 142.244 82.0965C142.051 81.9036 142.051 81.6141 142.244 81.4212C142.437 81.2282 142.726 81.2282 142.919 81.4212C144.784 83.222 148.032 83.3828 150.058 81.7749C152.084 80.1671 152.663 76.9513 151.344 74.7325C150.026 72.5136 146.907 71.4846 144.559 72.5136C144.302 72.6101 144.045 72.5136 143.916 72.2563C143.82 71.9991 143.916 71.7418 144.173 71.6132C144.398 71.5167 144.624 71.4524 144.849 71.3881L143.691 71.1308C140.411 67.7222 142.019 64.0241 141.729 60.937C141.311 56.3063 138.964 55.9526 136.231 55.02C134.076 55.1808 132.05 56.0169 130.249 57.1424C128.32 58.3644 126.519 59.8436 124.718 61.2264C122.885 62.6413 121.02 64.0562 119.187 65.4711C115.907 68.0116 112.595 70.552 109.283 73.0281C109.411 73.0924 109.508 73.1567 109.636 73.2211C113.077 75.1505 116.55 77.0478 120.023 78.9451C120.184 79.0415 120.313 79.2988 120.248 79.4917C119.991 80.1992 119.734 80.8745 119.509 81.582C118.319 84.9263 117.097 88.2707 115.907 91.5829C115.778 91.9688 115.65 92.3225 115.489 92.7084C115.489 92.8371 115.457 92.9657 115.36 93.0621C114.364 95.8598 113.334 98.6897 112.338 101.487C112.338 101.52 112.305 101.52 112.305 101.552C112.466 101.552 112.627 101.616 112.723 101.777C114.106 104.446 116.132 106.793 118.544 108.594C122.885 111.842 128.416 113.321 133.787 112.421C139.189 111.488 144.173 108.401 147.26 103.867C147.614 103.352 148.45 103.835 148.097 104.349C146.296 107.018 143.852 109.237 141.022 110.845C136.038 113.675 130.024 114.447 124.525 112.742C119.155 111.07 114.492 107.276 111.887 102.291C111.791 102.131 111.823 101.97 111.887 101.841C111.598 101.841 111.276 101.616 111.405 101.262C111.984 99.5901 112.595 97.9179 113.174 96.2457C113.56 95.1202 113.978 93.9947 114.364 92.9014C112.08 90.9076 109.283 89.5248 106.292 88.9782C101.243 88.0778 95.455 89.9107 92.593 94.3806C91.0173 96.8245 90.535 99.7509 89.1522 102.291C88.0589 104.285 86.3545 106.118 84.1356 106.761C84.6823 107.308 85.229 107.887 85.7435 108.498C86.5474 109.462 87.1584 110.524 87.6086 111.713C89.4737 116.569 87.9301 122.1 86.4509 126.86C86.2579 127.438 85.3254 127.213 85.5183 126.602C85.8721 125.412 86.2259 124.223 86.5474 123.001C87.1584 120.557 87.6086 118.048 87.4478 115.54C87.287 113.096 86.4509 110.781 84.843 108.916C83.3316 107.147 81.4022 105.7 80.2124 103.642C78.8296 101.23 79.0547 98.4646 79.2799 95.7955C79.3763 94.5092 79.4729 93.1908 79.3442 91.9045C79.2156 90.8111 78.9582 89.7178 78.5723 88.6888C77.8005 86.6628 76.5465 84.7977 74.9708 83.2863C73.3951 81.7749 71.4977 80.6172 69.4075 79.9741C67.5424 79.3953 65.0663 78.9772 63.3298 80.1349C62.7509 80.5208 62.4615 81.0031 62.3329 81.582C62.2364 81.9679 62.2365 82.4181 62.2365 82.8361C62.2365 82.9326 62.2365 83.0612 62.2687 83.1577C62.3651 84.3797 62.4294 85.5052 62.2043 86.7271C61.7541 88.9138 60.5321 90.9398 58.8599 92.3868C58.0238 93.1265 57.0592 93.7053 55.998 94.0912C55.9015 94.1233 55.7729 94.1555 55.6764 94.2198C55.387 94.3163 55.0975 94.4449 54.8403 94.5735C54.776 94.6057 54.7116 94.67 54.6473 94.7022C54.6151 94.7343 54.583 94.7665 54.5187 94.7986C54.1328 95.0881 53.779 95.4739 53.4896 95.8598C52.2676 97.5642 51.9461 99.8152 52.1069 101.873C52.2998 104.574 53.3932 107.147 54.0363 109.752C54.6473 112.292 54.7116 114.833 54.1649 117.405C53.1359 122.261 50.5311 126.602 49.3091 131.394C48.7303 133.645 48.5374 135.992 49.0198 138.308C49.47 140.43 50.3704 142.456 51.6245 144.224C54.1328 147.762 58.1524 150.334 62.5258 150.72C63.1368 150.785 63.1368 151.749 62.5258 151.685C61.4003 151.589 60.3071 151.363 59.2459 151.042C54.9368 149.659 51.3029 146.347 49.3413 142.295C48.3766 140.269 47.7978 138.018 47.7657 135.767C47.7335 133.259 48.3766 130.783 49.2127 128.435C50.8849 123.708 53.554 119.045 53.5862 113.932C53.5862 111.038 52.5893 108.305 51.8497 105.571C51.2066 103.192 50.8527 100.78 51.3994 98.3681C51.7209 96.9532 52.4607 95.3453 53.6184 94.3163C52.8144 94.0269 51.9782 93.8661 51.11 93.8661C49.3735 93.8339 47.7013 94.3806 45.997 94.7343C42.4597 95.5061 38.7937 95.7312 35.1921 95.3775C33.8737 95.2488 32.3944 95.0881 31.301 94.252C30.2077 93.3837 29.9504 91.9688 30.6579 90.7468C31.4618 89.3319 33.0376 88.8174 34.5811 88.7852C35.3851 88.7531 36.189 88.8174 36.9608 88.6566C37.7325 88.4958 38.4079 88.1099 38.9546 87.5632C39.4691 87.0487 39.9192 86.4377 40.1443 85.7303C40.3051 85.2158 40.498 84.5404 40.1443 84.0581C39.8227 83.6079 39.2761 83.3185 38.7938 83.0612C38.2793 82.804 37.7326 82.5788 37.1859 82.4502C35.8353 82.1286 34.5811 83.3828 33.8736 84.4118C33.134 85.4408 32.6838 86.6307 32.105 87.7562C31.5261 88.9138 30.7866 89.975 29.7575 90.7468C28.7285 91.5186 26.9921 92.2904 25.963 91.0684C25.0626 90.0072 25.5449 88.3029 25.8665 87.113C25.9629 86.7593 26.0594 86.4056 26.188 86.084C25.1269 87.113 23.8727 87.917 22.49 88.4636C21.686 88.7852 20.7535 89.0103 19.9496 88.4958C19.3064 88.1099 18.9849 87.3703 18.8884 86.6628C18.8241 86.084 18.9527 85.5052 19.21 84.9585C18.8241 84.7655 18.5025 84.5083 18.2453 84.1546C17.6664 83.3185 17.7306 82.2251 18.1165 81.3247C18.5024 80.4243 19.2099 79.749 19.9496 79.138C20.7535 78.527 21.5896 77.916 22.4257 77.3372C24.0979 76.1474 25.8344 74.9897 27.6995 74.1215C28.3748 73.7999 29.0823 73.4783 29.8219 73.2532H29.7897C28.3748 72.5136 27.1207 71.3881 26.1238 70.134C25.0626 68.8155 23.5191 66.5002 24.8375 64.8602C25.6736 63.8311 27.1528 63.6382 28.3427 64.1527C29.7254 64.7637 30.6579 66.05 31.7834 67.0147C35.0956 69.8124 39.3404 71.163 43.3922 72.7709C43.8424 72.9317 44.2927 73.1246 44.7107 73.2854C48.5374 74.8932 52.2998 76.7262 56.0622 78.4627C57.7344 79.2345 59.5031 79.8776 61.111 80.778C61.2717 80.8745 61.4325 80.971 61.5933 81.0675C62.2686 79.331 64.2302 78.5913 66.1275 78.5592C68.3464 78.527 70.6296 79.2666 72.559 80.36C74.5528 81.4855 76.2892 83.0612 77.6398 84.8942C78.9582 86.7271 79.923 88.8495 80.2768 91.0684C80.727 93.7696 80.116 96.4708 80.1482 99.172C80.1803 100.555 80.4054 101.905 81.0807 103.127C81.6595 104.189 82.4635 105.089 83.3317 105.925C83.3639 105.957 83.4281 106.022 83.4603 106.054C86.4831 105.507 88.2518 102.709 89.313 100.04C90.3742 97.3391 91.1781 94.5092 93.1719 92.3225C94.9405 90.4252 97.2879 89.0746 99.7962 88.3993C105.038 86.9522 110.73 88.5601 114.846 92.001C115.65 89.7178 116.486 87.4668 117.29 85.1836C117.965 83.3506 118.608 81.4855 119.284 79.6525C118.415 79.1702 117.547 78.72 116.711 78.2376C113.881 76.6941 111.084 75.1184 108.286 73.5748C107.932 73.3819 107.996 72.9316 108.286 72.7387C110.28 71.2595 112.241 69.7802 114.203 68.2688C117.933 65.4068 121.631 62.5448 125.393 59.6828C127.162 58.3322 128.931 56.853 130.892 55.7918C132.082 55.1486 133.336 54.6663 134.623 54.3447C133.787 53.9267 132.918 53.38 132.114 52.576C130.056 50.5501 129.092 43.9257 133.24 40.5814C136.681 49.5533 142.951 45.2442 149.801 50.936C155.107 55.3416 151.923 66.5323 147.904 71.2916C149.737 71.6132 151.409 72.6744 152.373 74.2822C153.949 76.9513 153.274 80.6494 150.83 82.5789C149.704 83.4793 148.29 83.8973 146.875 83.8973C146.585 83.8973 146.296 83.8651 146.006 83.833C146.231 85.2801 146.457 86.7271 146.682 88.1421C147.1 90.7147 147.55 93.2551 148.032 95.7955C148.032 95.6669 148.064 95.5704 148.193 95.4739C150.991 92.9014 154.946 91.9688 158.644 92.5798C161.988 93.1265 164.979 94.9916 166.844 97.8536C169.031 101.23 169.481 105.314 169.931 109.205C170.156 111.199 170.349 113.193 170.767 115.154C171.186 117.18 171.829 119.174 172.697 121.071C174.401 124.834 176.845 128.21 179.932 130.976C180.222 131.329 179.514 132.005 179.064 131.587ZM30.5615 72.4171C30.7866 72.5136 31.0117 72.5779 31.2368 72.6422C32.2337 72.8673 33.2948 72.7387 34.356 72.7709C35.6101 72.3207 36.9286 71.9669 38.2471 71.8061C35.8996 70.745 33.6165 69.5551 31.5906 67.9794C31.0439 67.5614 30.5293 67.1112 30.0469 66.661C29.5324 66.1786 29.0501 65.6319 28.4713 65.246C27.5708 64.6351 26.1238 64.3778 25.4163 65.439C24.9983 66.1143 25.3199 67.0147 25.6415 67.6578C26.0917 68.5261 26.7026 69.33 27.3457 70.0696C28.2783 71.0022 29.3395 71.8383 30.5615 72.4171ZM19.5958 83.9616C20.046 83.2542 20.5927 82.611 21.0751 82.0322C22.1684 80.6816 23.3583 79.4596 24.6767 78.3341C27.185 76.1795 30.047 74.4431 33.1341 73.2532C32.4909 73.3497 31.88 73.4783 31.269 73.6391C28.4392 74.4109 25.8343 75.9544 23.4225 77.6266C22.6829 78.1411 21.9433 78.6878 21.2037 79.2345C20.5284 79.749 19.7887 80.2635 19.2742 80.971C18.8562 81.582 18.5346 82.4181 18.824 83.1577C18.9527 83.4793 19.2421 83.8008 19.5958 83.9616ZM61.2717 81.9035C60.2427 81.1639 58.9885 80.6816 57.8308 80.1671C55.9657 79.331 54.165 78.4949 52.3321 77.6266C50.5634 76.7905 48.7947 75.9866 46.9939 75.1827C46.8974 75.1827 46.801 75.1827 46.7045 75.1184C44.8394 74.1536 42.7491 73.5105 40.7232 72.803C39.0189 72.5136 37.3145 72.8995 35.6745 73.3818C34.0666 73.8642 32.523 74.4752 31.0116 75.2148C28.0853 76.6941 25.4163 78.6878 23.1653 81.0675C22.5865 81.6784 22.0076 82.3216 21.493 82.9969C21.2358 83.3185 20.9786 83.6722 20.7213 84.0259C20.4962 84.3475 20.3033 84.6691 20.1103 85.0228C20.1103 85.055 20.0782 85.055 20.0782 85.0871C19.7566 85.7624 19.5958 86.5985 20.046 87.2417C20.5926 88.0135 21.5575 87.6597 22.2328 87.3381C23.6477 86.7271 24.9018 85.8589 25.9309 84.7012C26.4454 84.1224 26.8312 83.4471 27.2814 82.8039C27.5065 82.5145 27.7316 82.2573 27.9889 82C30.658 77.7874 35.16 74.4109 40.2731 74.443C40.884 74.443 40.884 75.4078 40.2731 75.4078C39.6299 75.4078 38.9866 75.4399 38.3756 75.5685C36.3819 75.9223 34.549 76.7905 32.9411 77.9803C31.2368 79.2345 29.7897 80.8745 28.6642 82.6753C28.0211 83.7044 27.5066 84.7977 27.0885 85.9232C26.8634 86.5342 26.6704 87.1773 26.5418 87.7883C26.4132 88.3993 26.2202 89.1068 26.3488 89.7178C26.6704 91.4221 28.7929 90.0715 29.5003 89.4284C31.3333 87.724 31.7835 85.1193 33.327 83.1898C34.1953 82.1286 35.5781 81.0353 37.0573 81.2604C38.1185 81.4212 39.244 81.9679 40.1123 82.611C40.5303 82.9326 40.9482 83.3185 41.109 83.833C41.302 84.4118 41.2056 85.1193 41.0126 85.666C40.5946 87.0487 39.5655 88.335 38.2792 88.9782C36.8 89.7178 35.2564 89.3641 33.7128 89.5892C32.4587 89.7821 30.7865 90.8433 31.1724 92.3547C31.494 93.5445 32.9732 93.8982 34.0344 94.0912C35.7709 94.3806 37.5397 94.4127 39.2761 94.3806C41.0448 94.3484 42.8134 94.1555 44.5499 93.8339C46.2221 93.5124 47.8622 92.9978 49.5665 92.7727C50.8849 92.6119 52.1712 92.6763 53.4254 93.03C53.747 93.1265 54.0685 93.2229 54.3901 93.3837C54.4544 93.4159 54.4865 93.4159 54.5187 93.448C54.7116 93.3516 54.8724 93.2872 55.0975 93.2229C57.2842 92.5476 59.1493 90.9398 60.2426 88.946C60.7893 87.9491 61.1753 86.8558 61.3039 85.7303C61.529 84.4761 61.1431 83.1898 61.2717 81.9035Z" fill="black"/>
<path d="M14.066 109.945L21.655 113.643C21.0762 114.414 20.1759 114.961 19.2112 115.122C17.5712 115.347 15.8668 114.479 14.9342 113.096C14.3232 112.163 14.0339 111.038 14.066 109.945ZM34.4216 85.6658C33.8427 85.4729 33.2961 85.9552 32.8781 86.3733C30.2733 89.1067 27.8615 91.9687 25.5783 94.9914C25.1281 94.8307 24.6457 94.702 24.1312 94.6699C22.0732 94.4769 19.9508 95.3452 18.5037 96.8244C16.6064 98.7217 15.6096 101.584 13.2621 102.902C11.815 103.738 9.72471 104.092 9.30666 105.7L8.79211 105.539C10.9788 107.083 13.4229 108.24 15.8347 109.366C19.9187 111.295 24.0347 113.257 28.1187 115.186C28.6654 113.064 27.7649 113.064 27.2826 110.845C26.8645 108.883 28.2474 106.439 28.6333 104.478C29.0513 102.388 29.6301 100.169 28.8904 98.1429C28.5367 97.2103 27.9258 96.4385 27.154 95.8275C29.5979 93.3836 31.9454 90.8431 34.1964 88.2384C34.518 87.8525 34.8718 87.4345 34.9683 86.92C35.0648 86.4054 34.9039 85.8588 34.4216 85.6658Z" fill="#FFE945"/>
<path d="M8.14817 99.3973C8.0517 99.6224 7.69809 99.6867 7.47299 99.5581C7.21573 99.4295 7.18358 99.1401 7.31221 98.8828C8.40556 96.3424 10.5278 94.3165 13.1326 93.3518C13.3898 93.2553 13.6472 93.4482 13.7115 93.6733C13.7758 93.9306 13.615 94.1878 13.3899 94.2522C11.0424 95.1847 9.14505 97.082 8.14817 99.3973ZM0.944959 98.4648C2.6493 94.3486 5.83297 90.9078 9.72401 88.7532C10.8495 88.1422 12.0071 87.6599 13.2291 87.274C13.808 87.0811 13.5828 86.1485 12.9718 86.3414C8.46975 87.7564 4.51442 90.747 1.90968 94.6702C1.17006 95.7635 0.559134 96.9534 0.0446166 98.1754C-0.212642 98.7863 0.719858 99.0436 0.944959 98.4648ZM32.5557 104.285C33.0702 106.536 33.0058 108.852 32.2984 111.038C32.1054 111.617 33.038 111.874 33.2309 111.296C33.9705 108.948 34.0349 106.44 33.4883 104.028C33.3596 103.417 32.4271 103.674 32.5557 104.285ZM38.7942 100.008C40.9809 103.899 41.4311 108.659 40.0805 112.903C39.8876 113.482 40.8201 113.739 41.013 113.161C42.4601 108.659 41.9457 103.642 39.6303 99.5259C39.3409 98.9793 38.5048 99.4938 38.7942 100.008Z" fill="black"/>
<path d="M94.7159 31.481C94.5229 31.288 94.5551 30.9986 94.7159 30.8057C94.9088 30.6128 95.1982 30.6449 95.3912 30.8057L95.4234 30.8378C95.4555 30.87 95.4555 30.87 95.3912 30.8057C95.4234 30.8057 95.4554 30.8378 95.4554 30.8378C95.4876 30.87 95.5198 30.87 95.552 30.87C95.5841 30.9022 95.6163 30.87 95.5198 30.87C95.5841 30.87 95.6485 30.9022 95.7128 30.9343C95.7449 30.9343 95.777 30.9343 95.8092 30.9665C95.7127 30.9343 95.7449 30.9665 95.8092 30.9665C95.8735 30.9665 95.9378 30.9665 95.97 30.9665C96.0021 30.9665 96.0342 30.9665 96.0986 30.9665C95.9699 30.9665 96.0342 30.9665 96.0986 30.9665C96.1629 30.9665 96.2272 30.9343 96.2593 30.9343C96.2915 30.9343 96.3238 30.9022 96.3559 30.9022C96.2594 30.9022 96.2916 30.9343 96.3237 30.9022C96.388 30.87 96.4202 30.8379 96.4845 30.8057C96.5167 30.8057 96.5489 30.7735 96.5489 30.7414C96.5489 30.7414 96.4524 30.8057 96.5167 30.7735C96.5489 30.7414 96.6131 30.7092 96.6453 30.6449C96.6453 30.6449 96.7096 30.5484 96.6775 30.6127C96.6453 30.6771 96.6775 30.6127 96.6775 30.5806C96.7096 30.5484 96.7095 30.5163 96.7417 30.4841C96.7417 30.452 96.7739 30.452 96.7739 30.4198C96.7739 30.452 96.7417 30.452 96.7417 30.4841C96.7417 30.452 96.7739 30.3877 96.7739 30.3233C96.7739 30.3233 96.7739 30.2268 96.8061 30.2268C96.8061 30.2912 96.8061 30.3233 96.8061 30.259V30.2268C96.8061 30.1625 96.8061 30.1304 96.8061 30.0661C96.8061 30.0017 96.8061 30.0339 96.8061 30.0982C96.8061 30.0661 96.8061 30.0661 96.8061 30.0339C96.8061 30.0018 96.8061 30.0018 96.8061 29.9696L96.7417 29.7767C96.7417 29.7767 96.806 29.8731 96.7417 29.7767C96.7417 29.7445 96.7097 29.7445 96.7097 29.7123C96.6775 29.648 96.6453 29.6159 96.6131 29.5516C96.5488 29.4551 96.6774 29.6159 96.6131 29.5516C96.581 29.5194 96.581 29.5194 96.5489 29.4872C96.5167 29.4551 96.4201 29.3586 96.4201 29.3586C96.4201 29.3586 96.5166 29.4229 96.4523 29.3908C96.4202 29.3586 96.3881 29.3586 96.3881 29.3264C96.3559 29.3264 96.3237 29.2943 96.2915 29.2943C96.2594 29.2943 96.2595 29.2621 96.2273 29.2621H96.2593C96.2915 29.2621 96.2915 29.2943 96.2593 29.2621C96.2272 29.2621 96.2273 29.2621 96.1951 29.23C96.163 29.23 96.1307 29.1978 96.0986 29.1978C96.0664 29.1978 96.0665 29.1978 96.0343 29.1978C96.0665 29.1978 96.0664 29.1978 96.0986 29.1978H96.0343C96.0022 29.1978 95.9699 29.1978 95.9378 29.1978C95.9056 29.1978 95.9057 29.1978 95.8736 29.1978C95.9057 29.1978 95.9056 29.1978 95.9378 29.1978C95.9056 29.23 95.8413 29.23 95.777 29.23C95.7448 29.23 95.7449 29.23 95.7128 29.2621C95.6806 29.2943 95.6806 29.2621 95.745 29.2621C95.745 29.2943 95.6805 29.2943 95.6484 29.2943C95.6162 29.3265 95.5519 29.3586 95.5198 29.3586C95.4233 29.4229 95.5198 29.3908 95.5198 29.3586L95.4554 29.4229C95.4233 29.4551 95.3912 29.4872 95.359 29.5194L95.3268 29.5516C95.359 29.4872 95.3912 29.4872 95.359 29.5194C95.359 29.5516 95.3268 29.5515 95.3268 29.5837C95.2947 29.648 95.2626 29.6802 95.2304 29.7445C95.2304 29.7766 95.1982 29.7767 95.1982 29.8088C95.1982 29.7767 95.2304 29.7766 95.2304 29.7445L95.1982 29.8088C95.1661 29.8731 95.166 29.9374 95.1338 29.9696C95.1338 30.0018 95.1338 30.0018 95.1338 30.0339C95.1338 29.9696 95.1338 29.9374 95.1338 29.9696C95.1338 30.0018 95.1338 30.0339 95.1338 30.0339C95.1338 30.0982 95.1338 30.1625 95.1338 30.2268C95.1338 30.3233 95.1338 30.1947 95.1338 30.1947C95.1338 30.1947 95.1339 30.259 95.166 30.2912C95.166 30.3233 95.2625 30.5163 95.1982 30.3876C95.2947 30.6449 95.2625 30.9022 95.0374 31.063C94.8445 31.1916 94.4907 31.1273 94.3621 30.9022C94.2013 30.5163 94.1371 30.1304 94.2657 29.7123C94.3622 29.3586 94.555 29.0049 94.8445 28.7798C95.3911 28.2653 96.163 28.1688 96.8383 28.5225C97.4493 28.8441 97.8673 29.5837 97.803 30.259C97.7387 30.9986 97.2562 31.5453 96.5809 31.7704C95.9056 32.0598 95.1982 31.9312 94.7159 31.481ZM53.9404 38.3305C54.6157 38.9093 55.3232 39.5203 55.9985 40.0992C56.1914 40.2599 56.4808 40.2921 56.6738 40.0992C56.8346 39.9062 56.8667 39.5846 56.6738 39.4239C55.9985 38.845 55.2909 38.234 54.6156 37.6552C54.4227 37.4944 54.1334 37.4623 53.9404 37.6552C53.7796 37.816 53.7475 38.1376 53.9404 38.3305ZM85.5832 64.5066C85.4867 66.5647 85.3903 68.6227 85.2938 70.713C85.2617 71.3239 86.2264 71.3239 86.2585 70.713C86.355 68.6549 86.4515 66.5968 86.5479 64.5066C86.5801 63.8956 85.6154 63.8956 85.5832 64.5066Z" fill="black"/>
</svg>
