<svg width="29" height="29" viewBox="0 0 29 29" fill="none" xmlns="http://www.w3.org/2000/svg">
<path d="M12.0833 4.53125C10.8816 4.53125 9.72903 5.00865 8.87926 5.85842C8.02948 6.7082 7.55208 7.86074 7.55208 9.0625C7.55208 10.2643 8.02948 11.4168 8.87926 12.2666C9.72903 13.1164 10.8816 13.5937 12.0833 13.5937C13.2851 13.5937 14.4376 13.1164 15.2874 12.2666C16.1372 11.4168 16.6146 10.2643 16.6146 9.0625C16.6146 7.86074 16.1372 6.7082 15.2874 5.85842C14.4376 5.00865 13.2851 4.53125 12.0833 4.53125ZM7.25 16.0104C6.04824 16.0104 4.8957 16.4878 4.04592 17.3376C3.19615 18.1874 2.71875 19.3399 2.71875 20.5417V21.9772C2.71875 22.8882 3.3785 23.664 4.2775 23.8102C6.94792 24.2464 9.64612 24.4579 12.3443 24.4434C12.5328 24.4422 12.6464 24.2331 12.5546 24.0688C11.8473 22.8069 11.4769 21.3841 11.4792 19.9375C11.4792 18.9865 11.6362 18.0718 11.9262 17.2187C11.9388 17.181 11.9424 17.1409 11.9369 17.1016C11.9314 17.0623 11.9168 17.0247 11.8943 16.9919C11.8718 16.9592 11.8421 16.9321 11.8074 16.9127C11.7727 16.8934 11.7339 16.8823 11.6943 16.8804C10.9022 16.8448 10.1186 16.7025 9.36458 16.4575L8.31817 16.1143C8.10607 16.0463 7.88478 16.0113 7.66204 16.0104H7.25ZM20.8437 18.125C20.8437 17.8846 20.7483 17.6541 20.5783 17.4842C20.4084 17.3142 20.1779 17.2187 19.9375 17.2187C19.6971 17.2187 19.4666 17.3142 19.2967 17.4842C19.1267 17.6541 19.0312 17.8846 19.0312 18.125V20.2674C19.0312 20.5574 19.1702 20.8292 19.4046 20.9996L20.613 21.8793C20.8075 22.0206 21.0502 22.0789 21.2877 22.0413C21.5252 22.0036 21.738 21.8732 21.8793 21.6787C22.0206 21.4842 22.0789 21.2415 22.0413 21.004C22.0036 20.7665 21.8732 20.5537 21.6787 20.4124L20.8437 19.8058V18.125Z" fill="#DD634D"/>
<path fill-rule="evenodd" clip-rule="evenodd" d="M19.9373 26.5833C21.6999 26.5833 23.3903 25.8831 24.6367 24.6368C25.883 23.3904 26.5832 21.7 26.5832 19.9375C26.5832 18.1749 25.883 16.4845 24.6367 15.2381C23.3903 13.9918 21.6999 13.2916 19.9373 13.2916C18.1748 13.2916 16.4844 13.9918 15.238 15.2381C13.9917 16.4845 13.2915 18.1749 13.2915 19.9375C13.2915 21.7 13.9917 23.3904 15.238 24.6368C16.4844 25.8831 18.1748 26.5833 19.9373 26.5833ZM19.9373 24.7708C21.2192 24.7708 22.4486 24.2616 23.355 23.3551C24.2614 22.4487 24.7707 21.2193 24.7707 19.9375C24.7707 18.6556 24.2614 17.4262 23.355 16.5198C22.4486 15.6134 21.2192 15.1041 19.9373 15.1041C18.6555 15.1041 17.4261 15.6134 16.5197 16.5198C15.6132 17.4262 15.104 18.6556 15.104 19.9375C15.104 21.2193 15.6132 22.4487 16.5197 23.3551C17.4261 24.2616 18.6555 24.7708 19.9373 24.7708Z" fill="#DD634D"/>
</svg>
