<svg width="118" height="118" viewBox="0 0 118 118" fill="none" xmlns="http://www.w3.org/2000/svg">
<path fill-rule="evenodd" clip-rule="evenodd" d="M57.013 70.7147V35H61.0648V70.7147H57.013ZM56 79.6434C56 78.6286 56.3202 77.6552 56.8901 76.9376C57.46 76.22 58.2329 75.8168 59.0389 75.8168C59.8449 75.8168 60.6178 76.22 61.1877 76.9376C61.7576 77.6552 62.0778 78.6286 62.0778 79.6434C62.0778 80.6583 61.7576 81.6316 61.1877 82.3492C60.6178 83.0668 59.8449 83.47 59.0389 83.47C58.2329 83.47 57.46 83.0668 56.8901 82.3492C56.3202 81.6316 56 80.6583 56 79.6434Z" fill="#1B84FF"/>
<path fill-rule="evenodd" clip-rule="evenodd" d="M59 112.1C88.3259 112.1 112.1 88.3259 112.1 59C112.1 29.674 88.3259 5.9 59 5.9C29.674 5.9 5.9 29.674 5.9 59C5.9 88.3259 29.674 112.1 59 112.1ZM59 118C91.5857 118 118 91.5857 118 59C118 26.4143 91.5857 0 59 0C26.4143 0 0 26.4143 0 59C0 91.5857 26.4143 118 59 118Z" fill="#1B84FF"/>
</svg>
