<svg width="118" height="118" viewBox="0 0 118 118" fill="none" xmlns="http://www.w3.org/2000/svg">
<path fill-rule="evenodd" clip-rule="evenodd" d="M59 112.1C88.3259 112.1 112.1 88.3259 112.1 59C112.1 29.674 88.3259 5.9 59 5.9C29.674 5.9 5.9 29.674 5.9 59C5.9 88.3259 29.674 112.1 59 112.1ZM59 118C91.5857 118 118 91.5857 118 59C118 26.4143 91.5857 0 59 0C26.4143 0 0 26.4143 0 59C0 91.5857 26.4143 118 59 118Z" fill="#A22403"/>
<path d="M74.2475 47.7312C74.5162 47.4719 74.7306 47.1617 74.8782 46.8186C75.0258 46.4755 75.1035 46.1065 75.1069 45.7331C75.1104 45.3596 75.0394 44.9893 74.8981 44.6436C74.7569 44.2978 74.5482 43.9837 74.2842 43.7195C74.0203 43.4553 73.7064 43.2463 73.3608 43.1048C73.0152 42.9632 72.6449 42.8919 72.2715 42.8949C71.898 42.898 71.5289 42.9754 71.1857 43.1226C70.8425 43.2699 70.5321 43.484 70.2725 43.7525L59 55.0212L47.7312 43.7525C47.4738 43.4762 47.1633 43.2545 46.8183 43.1008C46.4733 42.9471 46.1008 42.8644 45.7232 42.8578C45.3456 42.8511 44.9705 42.9206 44.6202 43.062C44.27 43.2035 43.9519 43.414 43.6848 43.6811C43.4178 43.9482 43.2072 44.2663 43.0658 44.6165C42.9243 44.9667 42.8549 45.3418 42.8615 45.7194C42.8682 46.0971 42.9508 46.4695 43.1046 46.8145C43.2583 47.1595 43.4799 47.47 43.7562 47.7275L55.0175 59L43.7487 70.2687C43.2519 70.8019 42.9815 71.5071 42.9943 72.2357C43.0072 72.9643 43.3024 73.6595 43.8177 74.1748C44.333 74.6901 45.0282 74.9853 45.7568 74.9981C46.4854 75.011 47.1906 74.7405 47.7237 74.2437L59 62.975L70.2687 74.2475C70.8019 74.7443 71.5071 75.0147 72.2357 75.0019C72.9643 74.989 73.6595 74.6939 74.1748 74.1786C74.6901 73.6633 74.9853 72.9681 74.9981 72.2394C75.011 71.5108 74.7405 70.8056 74.2437 70.2725L62.9825 59L74.2475 47.7312Z" fill="#A22403"/>
</svg>
