<svg width="118" height="118" viewBox="0 0 118 118" fill="none" xmlns="http://www.w3.org/2000/svg">
<path fill-rule="evenodd" clip-rule="evenodd" d="M59 112.1C88.326 112.1 112.1 88.326 112.1 59C112.1 29.674 88.326 5.9 59 5.9C29.674 5.9 5.9 29.674 5.9 59C5.9 88.326 29.674 112.1 59 112.1ZM59 118C91.5857 118 118 91.5857 118 59C118 26.4143 91.5857 0 59 0C26.4143 0 0 26.4143 0 59C0 91.5857 26.4143 118 59 118Z" fill="#1B84FF"/>
<path fill-rule="evenodd" clip-rule="evenodd" d="M90.4755 36.164C91.0559 36.6883 91.4043 37.4216 91.4441 38.2027C91.4839 38.9838 91.212 39.7488 90.688 40.3294L51.2877 83.8744L27.4635 61.1328C26.9286 60.5861 26.6269 59.853 26.6221 59.0881C26.6174 58.3232 26.9099 57.5863 27.438 57.033C27.9661 56.4796 28.6885 56.153 29.4527 56.1221C30.217 56.0911 30.9634 56.3583 31.5345 56.8671L50.975 75.4226L86.3131 36.3735C86.5732 36.0861 86.8873 35.8528 87.2376 35.6868C87.5878 35.5209 87.9674 35.4257 88.3545 35.4065C88.7416 35.3873 89.1287 35.4446 89.4936 35.5751C89.8586 35.7056 90.1943 35.9067 90.4814 36.167" fill="#1B84FF"/>
</svg>
