<svg width="38" height="29" viewBox="0 0 38 29" fill="none" xmlns="http://www.w3.org/2000/svg">
<path d="M14 15.7083C16.7953 15.7083 19.3375 16.5469 21.2077 17.7286C22.141 18.3183 22.939 19.0143 23.5153 19.7707C24.0823 20.5138 24.5 21.4032 24.5 22.3541C24.5 23.3752 24.0205 24.1799 23.3298 24.7539C22.6765 25.2976 21.8143 25.6577 20.8985 25.909C19.0575 26.4129 16.6005 26.5833 14 26.5833C11.3995 26.5833 8.9425 26.4141 7.1015 25.909C6.18567 25.6577 5.3235 25.2976 4.67017 24.7539C3.97833 24.1787 3.5 23.3752 3.5 22.3541C3.5 21.4032 3.91767 20.5138 4.48467 19.7695C5.061 19.0143 5.85783 18.3195 6.79233 17.7274C8.6625 16.5481 11.2058 15.7083 14 15.7083ZM14 2.41663C15.5471 2.41663 17.0308 3.05316 18.1248 4.18619C19.2188 5.31922 19.8333 6.85594 19.8333 8.45829C19.8333 10.0606 19.2188 11.5974 18.1248 12.7304C17.0308 13.8634 15.5471 14.5 14 14.5C12.4529 14.5 10.9692 13.8634 9.87521 12.7304C8.78125 11.5974 8.16667 10.0606 8.16667 8.45829C8.16667 6.85594 8.78125 5.31922 9.87521 4.18619C10.9692 3.05316 12.4529 2.41663 14 2.41663Z" fill="#7FBA00"/>
<path d="M24.4225 12.0048C24.5853 11.8374 24.6667 11.6339 24.6667 11.3946C24.6667 11.1552 24.5858 10.9512 24.4242 10.7826C24.2625 10.6141 24.0661 10.5298 23.835 10.5298C23.6039 10.5298 23.4069 10.6135 23.2442 10.7809C23.0814 10.9484 23 11.1518 23 11.3911C23 11.6305 23.0808 11.8345 23.2425 12.0031C23.4042 12.1717 23.6006 12.256 23.8317 12.256C24.0628 12.256 24.2597 12.1722 24.4225 12.0048ZM28.5892 12.0048C28.7519 11.8374 28.8333 11.6339 28.8333 11.3946C28.8333 11.1552 28.7525 10.9512 28.5908 10.7826C28.4292 10.6141 28.2328 10.5298 28.0017 10.5298C27.7706 10.5298 27.5736 10.6135 27.4108 10.7809C27.2481 10.9484 27.1667 11.1518 27.1667 11.3911C27.1667 11.6305 27.2475 11.8345 27.4092 12.0031C27.5708 12.1717 27.7672 12.256 27.9983 12.256C28.2294 12.256 28.4264 12.1722 28.5892 12.0048ZM32.7558 12.0048C32.9186 11.8374 33 11.6339 33 11.3946C33 11.1552 32.9192 10.9512 32.7575 10.7826C32.5958 10.6141 32.3994 10.5298 32.1683 10.5298C31.9372 10.5298 31.7403 10.6135 31.5775 10.7809C31.4147 10.9484 31.3333 11.1518 31.3333 11.3911C31.3333 11.6305 31.4142 11.8345 31.5758 12.0031C31.7375 12.1717 31.9339 12.256 32.165 12.256C32.3961 12.256 32.5931 12.1722 32.7558 12.0048ZM28.0025 19.1607C26.9658 19.1607 25.9908 18.957 25.0775 18.5496C24.1647 18.1417 23.3706 17.5882 22.695 16.889C22.0194 16.1899 21.4847 15.3683 21.0908 14.424C20.6969 13.4798 20.5 12.4703 20.5 11.3954C20.5 10.3206 20.6969 9.31078 21.0908 8.36598C21.4842 7.4206 22.0178 6.59808 22.6917 5.89839C23.3656 5.19871 24.1592 4.64489 25.0725 4.23693C25.9858 3.82898 26.9608 3.625 27.9975 3.625C29.0342 3.625 30.0092 3.82898 30.9225 4.23693C31.8353 4.64432 32.6294 5.19727 33.305 5.8958C33.9806 6.59434 34.5153 7.41629 34.9092 8.36167C35.3031 9.30704 35.5 10.3166 35.5 11.3903C35.5 12.464 35.3033 13.4738 34.91 14.4197C34.5167 15.3657 33.9822 16.1882 33.3067 16.8873C32.6311 17.5864 31.8378 18.1402 30.9267 18.5488C30.0156 18.9573 29.0408 19.1613 28.0025 19.1607ZM28 18.2976C29.8611 18.2976 31.4375 17.6287 32.7292 16.2909C34.0208 14.9531 34.6667 13.3204 34.6667 11.3929C34.6667 9.46528 34.0208 7.83259 32.7292 6.49479C31.4375 5.15699 29.8611 4.4881 28 4.4881C26.1389 4.4881 24.5625 5.15699 23.2708 6.49479C21.9792 7.83259 21.3333 9.46528 21.3333 11.3929C21.3333 13.3204 21.9792 14.9531 23.2708 16.2909C24.5625 17.6287 26.1389 18.2976 28 18.2976Z" fill="#7FBA00"/>
</svg>
