<svg width="29" height="29" viewBox="0 0 29 29" fill="none" xmlns="http://www.w3.org/2000/svg">
<path fill-rule="evenodd" clip-rule="evenodd" d="M13.2915 2.41663C11.6892 2.41663 10.1524 3.05316 9.0194 4.18619C7.88637 5.31922 7.24984 6.85594 7.24984 8.45829C7.24984 10.0606 7.88637 11.5974 9.0194 12.7304C10.1524 13.8634 11.6892 14.5 13.2915 14.5C14.8939 14.5 16.4306 13.8634 17.5636 12.7304C18.6966 11.5974 19.3332 10.0606 19.3332 8.45829C19.3332 6.85594 18.6966 5.31922 17.5636 4.18619C16.4306 3.05316 14.8939 2.41663 13.2915 2.41663ZM13.2915 15.7083C10.3975 15.7083 7.76338 16.5469 5.82642 17.7286C4.85975 18.3183 4.03325 19.0143 3.43634 19.7707C2.84909 20.5126 2.4165 21.4032 2.4165 22.3541C2.4165 23.3752 2.91313 24.1799 3.62846 24.7539C4.30513 25.2976 5.19809 25.6577 6.14663 25.909C8.05338 26.4129 10.5981 26.5833 13.2915 26.5833C13.5702 26.5833 13.8461 26.5813 14.1192 26.5773C14.3216 26.5745 14.52 26.5209 14.6963 26.4215C14.8726 26.322 15.021 26.1799 15.1281 26.0082C15.2351 25.8364 15.2973 25.6405 15.309 25.4384C15.3206 25.2364 15.2813 25.0347 15.1946 24.8517C14.7364 23.8819 14.4991 22.8226 14.4998 21.75C14.4998 20.2371 14.9626 18.8355 15.7529 17.6742C15.8703 17.5017 15.9411 17.3016 15.9582 17.0936C15.9754 16.8856 15.9384 16.6766 15.8507 16.4871C15.7631 16.2977 15.6279 16.1341 15.4583 16.0125C15.2887 15.8908 15.0904 15.8151 14.8829 15.7929C14.3625 15.7365 13.832 15.7083 13.2915 15.7083ZM20.0413 18.3328C19.8134 18.1127 19.5081 17.9909 19.1913 17.9936C18.8745 17.9964 18.5714 18.1235 18.3474 18.3475C18.1234 18.5715 17.9963 18.8746 17.9935 19.1914C17.9908 19.5083 18.1126 19.8135 18.3327 20.0414L20.0413 21.75L18.3327 23.4585C18.2173 23.57 18.1252 23.7033 18.0619 23.8508C17.9986 23.9982 17.9652 24.1567 17.9638 24.3172C17.9624 24.4776 17.993 24.6367 18.0538 24.7852C18.1145 24.9337 18.2042 25.0686 18.3177 25.1821C18.4311 25.2956 18.5661 25.3853 18.7146 25.446C18.8631 25.5068 19.0222 25.5374 19.1826 25.536C19.3431 25.5346 19.5016 25.5012 19.649 25.4379C19.7965 25.3746 19.9298 25.2825 20.0413 25.1671L21.7498 23.4585L23.4584 25.1671C23.5699 25.2825 23.7032 25.3746 23.8506 25.4379C23.9981 25.5012 24.1566 25.5346 24.3171 25.536C24.4775 25.5374 24.6366 25.5068 24.7851 25.446C24.9336 25.3853 25.0685 25.2956 25.182 25.1821C25.2954 25.0686 25.3852 24.9337 25.4459 24.7852C25.5067 24.6367 25.5372 24.4776 25.5358 24.3172C25.5345 24.1567 25.5011 23.9982 25.4378 23.8508C25.3745 23.7033 25.2824 23.57 25.167 23.4585L23.4584 21.75L25.167 20.0414C25.3871 19.8135 25.5089 19.5083 25.5061 19.1914C25.5034 18.8746 25.3763 18.5715 25.1523 18.3475C24.9282 18.1235 24.6252 17.9964 24.3084 17.9936C23.9915 17.9909 23.6863 18.1127 23.4584 18.3328L21.7498 20.0414L20.0413 18.3328Z" fill="#E60000"/>
</svg>
